<mxfile host="app.diagrams.net" modified="2023-10-05T20:27:10.995Z" agent="Mozilla/5.0 (X11; Linux x86_64) AppleWebKit/537.36 (KHTML, like Gecko) Chrome/117.0.0.0 Safari/537.36" version="22.0.3" etag="OLKxeq1EhpgPo0wEi2Ki" type="github">
  <diagram name="PÃ¡gina-1" id="N1S3ki2WG16ZbRy9KB7t">
    <mxGraphModel>
      <root>
        <mxCell id="0" />
        <mxCell id="1" parent="0" />
      </root>
    </mxGraphModel>
  </diagram>
</mxfile>
